<svg width="25" height="20" viewBox="0 0 25 20" fill="none" xmlns="http://www.w3.org/2000/svg">
<path d="M22.0938 4.98436C22.1094 5.2031 22.1094 5.42188 22.1094 5.64062C22.1094 12.3125 17.0313 20 7.75001 20C4.89062 20 2.23439 19.1718 0 17.7344C0.406265 17.7812 0.796851 17.7969 1.21875 17.7969C3.57808 17.7969 5.74999 17 7.48437 15.6406C5.26562 15.5938 3.40624 14.1406 2.7656 12.1406C3.07813 12.1875 3.39061 12.2187 3.71876 12.2187C4.17187 12.2187 4.62503 12.1562 5.04688 12.0469C2.73439 11.5781 0.999959 9.54687 0.999959 7.09374V7.03126C1.67181 7.40627 2.45312 7.64064 3.28119 7.67185C1.92181 6.76558 1.03122 5.21873 1.03122 3.46871C1.03122 2.53123 1.28118 1.67186 1.7187 0.921852C4.20309 3.98435 7.93748 5.98432 12.1249 6.2031C12.0468 5.8281 11.9999 5.43752 11.9999 5.04688C11.9999 2.2656 14.25 0 17.0468 0C18.4999 0 19.8124 0.609373 20.7343 1.59375C21.8749 1.37501 22.9687 0.953114 23.9375 0.375003C23.5624 1.5469 22.7656 2.53128 21.7187 3.15624C22.7343 3.04691 23.7187 2.7656 24.6249 2.37502C23.9376 3.37498 23.0781 4.26557 22.0938 4.98436Z" fill="white"/>
</svg>
